<?xml version="1.0" standalone="no"?>
<!DOCTYPE svg PUBLIC "-//W3C//DTD SVG 20010904//EN"
 "http://www.w3.org/TR/2001/REC-SVG-20010904/DTD/svg10.dtd">
<svg version="1.0" xmlns="http://www.w3.org/2000/svg"
 width="152.000000pt" height="152.000000pt" viewBox="0 0 152.000000 152.000000"
 preserveAspectRatio="xMidYMid meet">

<g transform="translate(0.000000,152.000000) scale(0.100000,-0.100000)"
fill="#000000" stroke="none">
<path d="M526 1368 c-14 -19 -16 -64 -16 -285 l0 -262 -176 -3 c-160 -3 -177
-5 -190 -22 -11 -16 -14 -78 -14 -331 0 -289 1 -313 18 -328 17 -15 74 -17
619 -17 568 0 601 1 616 18 15 17 17 63 17 459 0 413 -1 441 -18 456 -16 14
-45 17 -190 17 l-172 0 0 138 c0 197 21 182 -255 182 -220 0 -224 0 -239 -22z
m364 -613 l0 -505 -125 0 -125 0 0 505 0 505 125 0 125 0 0 -505z m380 -160
l0 -345 -125 0 -125 0 0 345 0 345 125 0 125 0 0 -345z m-760 -125 l0 -220
-125 0 -125 0 0 220 0 220 125 0 125 0 0 -220z"/>
</g>
</svg>
