<?xml version="1.0" standalone="no"?>
<!DOCTYPE svg PUBLIC "-//W3C//DTD SVG 20010904//EN"
 "http://www.w3.org/TR/2001/REC-SVG-20010904/DTD/svg10.dtd">
<svg version="1.0" xmlns="http://www.w3.org/2000/svg"
 width="152.000000pt" height="152.000000pt" viewBox="0 0 152.000000 152.000000"
 preserveAspectRatio="xMidYMid meet">

<g transform="translate(0.000000,152.000000) scale(0.100000,-0.100000)"
fill="#000000" stroke="none">
<path d="M1075 1177 c-83 -105 -154 -192 -160 -194 -5 -1 -79 53 -164 121
l-155 123 -21 -26 c-71 -86 -357 -454 -361 -464 -2 -7 17 -29 44 -48 l48 -36
149 190 c83 105 155 192 160 194 6 1 78 -51 160 -117 83 -66 155 -118 160
-117 11 4 385 476 385 486 0 4 -22 23 -48 43 l-48 35 -149 -190z"/>
<path d="M1210 595 l0 -415 65 0 65 0 0 415 0 415 -65 0 -65 0 0 -415z"/>
<path d="M700 470 l0 -290 65 0 65 0 0 290 0 290 -65 0 -65 0 0 -290z"/>
<path d="M450 435 l0 -255 60 0 60 0 0 255 0 255 -60 0 -60 0 0 -255z"/>
<path d="M960 435 l0 -255 60 0 60 0 0 255 0 255 -60 0 -60 0 0 -255z"/>
<path d="M190 370 l0 -190 65 0 65 0 0 190 0 190 -65 0 -65 0 0 -190z"/>
</g>
</svg>
